<?xml version="1.0" encoding="utf-8"?>
<!-- Generator: Adobe Illustrator 16.0.0, SVG Export Plug-In . SVG Version: 6.00 Build 0)  -->
<!DOCTYPE svg PUBLIC "-//W3C//DTD SVG 1.1//EN" "http://www.w3.org/Graphics/SVG/1.1/DTD/svg11.dtd">
<svg version="1.1" id="Layer_1" xmlns="http://www.w3.org/2000/svg" xmlns:xlink="http://www.w3.org/1999/xlink" x="0px" y="0px"
	 width="1665.086px" height="567.029px" viewBox="0 0 1665.086 567.029" enable-background="new 0 0 1665.086 567.029"
	 xml:space="preserve">
<g>
	<g>
		<path fill="#EF4169" d="M1042.517,254.481V147.136c0-11.33-6.894-17.396-20.539-18.079c-0.902-0.037-1.84-0.075-2.775-0.075
			H712.55v0.217h-8.625c-15.45,0-23.317,6.064-23.317,18.153v78.868h-34.723c-15.483,0-23.315,6.027-23.315,18.157v107.337
			c0,11.877,7.18,17.69,23.315,17.69h81.317V175.257h268.538v215.946h0.47l-1.481,0.356h-92.762l-0.034-0.356l-1.012-21.799h34.724
			c16.137,0,23.314-5.813,23.314-17.69V244.377c0-12.13-7.832-18.157-23.314-18.157h-81.317l0.973,153.614h-0.035v34.757
			c0,15.445,6.062,23.315,18.117,23.315h40.748c-0.213,0-0.394-0.036-0.577-0.073h69.121c-0.723,0.037-1.444,0.073-2.163,0.073
			h-66.381c0.869,0.11,1.771,0.142,2.746,0.142h107.306c12.129,0,18.156-7.864,18.156-23.315v-34.716h-0.037v-122.25
			C1042.445,256.754,1042.517,255.633,1042.517,254.481z M680.608,333.776h-10.974c-0.217,0-0.471-0.215-0.471-0.467v-70.816
			c0-0.215,0.254-0.435,0.471-0.435h10.974V333.776z M900.92,262.059h10.973c0.255,0,0.471,0.219,0.471,0.435v70.816
			c0,0.252-0.216,0.467-0.471,0.467H900.92V262.059z"/>
		<path fill="#EF4169" d="M761.969,369.404c-15.462,0-23.307-5.824-23.307-17.703V226.205h46.614v107.119
			c0,0.229,0.221,0.447,0.447,0.447h10.531c0.227,0,0.446-0.219,0.446-0.447V226.205h46.612v125.496
			c0,11.879-7.842,17.703-23.304,17.703H761.969z"/>
	</g>
</g>
</svg>
