<?xml version="1.0" encoding="utf-8"?>
<!-- Generator: Adobe Illustrator 16.0.0, SVG Export Plug-In . SVG Version: 6.00 Build 0)  -->
<!DOCTYPE svg PUBLIC "-//W3C//DTD SVG 1.1//EN" "http://www.w3.org/Graphics/SVG/1.1/DTD/svg11.dtd">
<svg version="1.1" id="Layer_1" xmlns="http://www.w3.org/2000/svg" xmlns:xlink="http://www.w3.org/1999/xlink" x="0px" y="0px"
	 width="1665.086px" height="567.029px" viewBox="0 0 1665.086 567.029" enable-background="new 0 0 1665.086 567.029"
	 xml:space="preserve">
<g>
	<g>
		<path fill="#FED93E" d="M897.023,242.629c9.98,0.062,17.896,3.685,23.761,10.88c5.864,7.196,8.75,17.4,8.674,30.632
			c-0.047,6.396-1.026,12.163-2.955,17.299c-1.937,5.133-4.478,9.487-7.656,13.041c-3.165,3.559-6.806,6.301-10.939,8.232
			c-4.138,1.915-8.481,2.871-13.041,2.838c-4.543-0.028-8.498-0.875-11.849-2.514c-3.357-1.654-6.75-3.888-10.203-6.731
			l0.565,13.494l3.257,136.029l-11.897-9.969l-4.314-211.512l11.06,0.066l1.076,9.276l0.494,0.008
			c3.163-3.024,6.785-5.627,10.866-7.818C887.989,243.686,892.367,242.601,897.023,242.629z M894.027,253.831
			c-3.682-0.031-7.16,0.847-10.428,2.613c-3.262,1.77-6.53,4.493-9.807,8.152l-0.254,41.305c3.332,3.052,6.547,5.219,9.633,6.488
			c3.073,1.258,6.242,1.9,9.494,1.929c3.147,0.022,6.105-0.693,8.873-2.139c2.781-1.442,5.211-3.495,7.276-6.134
			c2.089-2.646,3.735-5.812,4.951-9.482c1.211-3.69,1.834-7.788,1.864-12.351c0.063-9.541-1.785-16.983-5.552-22.309
			C906.319,256.557,900.972,253.87,894.027,253.831z"/>
		<path fill="#FED93E" d="M738.673,322.61c-9.972-0.065-17.88-3.69-23.748-10.89c-5.859-7.192-8.744-17.396-8.666-30.628
			c0.045-6.391,1.022-12.157,2.957-17.296c1.93-5.136,4.479-9.482,7.643-13.041c3.163-3.554,6.811-6.299,10.948-8.225
			c4.129-1.924,8.471-2.868,13.024-2.852c4.549,0.031,8.51,0.881,11.856,2.524c3.344,1.641,6.746,3.886,10.206,6.734l-0.57-13.505
			l0.685-107.991l13.192,0.635l-0.925,192.813l-11.057-0.073l-1.081-9.272l-0.487-0.005c-3.161,3.016-6.775,5.621-10.855,7.813
			C747.705,321.55,743.339,322.638,738.673,322.61z M741.673,311.408c3.692,0.022,7.161-0.851,10.431-2.616
			c3.257-1.768,6.532-4.484,9.801-8.149l0.266-41.305c-3.344-3.053-6.547-5.214-9.628-6.488c-3.087-1.259-6.254-1.903-9.508-1.929
			c-3.14-0.017-6.1,0.696-8.873,2.141c-2.773,1.446-5.202,3.492-7.271,6.134c-2.077,2.647-3.727,5.804-4.942,9.475
			c-1.219,3.685-1.837,7.797-1.864,12.351c-0.062,9.541,1.786,16.982,5.549,22.313C729.393,308.677,734.736,311.36,741.673,311.408z
			"/>
		<path fill="#FED93E" d="M825.355,242.176c8.447,0.051,14.581,2.688,18.391,7.926c3.822,5.223,5.694,12.927,5.628,23.119
			l-0.316,50.083l-13.491-0.084l0.309-48.291c0.041-7.479-1.091-12.882-3.392-16.2c-2.314-3.332-6.078-4.998-11.272-5.037
			c-4.126-0.025-7.759,1.009-10.916,3.105c-3.159,2.088-6.65,5.457-10.475,10.095l-0.353,56.099l-13.335-0.078l0.501-79.036
			l11.054,0.078l1.067,12.356l0.483,0.003c3.715-4.311,7.615-7.75,11.693-10.33C815.011,243.4,819.817,242.143,825.355,242.176z"/>
		<polygon fill="#FED93E" points="776.191,129.375 778.003,106.735 603.874,316.331 616.118,322.411 		"/>
		<polygon fill="#FED93E" points="876.363,454.39 877.537,470.674 603.874,316.331 623.133,312.935 		"/>
	</g>
</g>
<g>
	<g>
		<path fill="#5C2D88" d="M768.065,327.242c-9.982-0.062-17.896-3.688-23.763-10.884c-5.862-7.192-8.752-17.396-8.672-30.63
			c0.049-6.394,1.026-12.161,2.955-17.297c1.935-5.133,4.479-9.487,7.655-13.041c3.163-3.559,6.804-6.304,10.941-8.232
			c4.135-1.918,8.479-2.874,13.038-2.838c4.543,0.028,8.498,0.872,11.851,2.51c3.354,1.655,6.748,3.892,10.201,6.735l-0.565-13.494
			l-2.852-140.136l11.492,14.074l4.314,211.513l-11.059-0.067l-1.074-9.275l-0.495-0.008c-3.161,3.024-6.784,5.627-10.869,7.818
			C777.098,326.186,772.72,327.267,768.065,327.242z M771.06,316.037c3.682,0.034,7.16-0.844,10.428-2.613
			c3.265-1.767,6.529-4.49,9.809-8.149l0.255-41.305c-3.333-3.055-6.547-5.219-9.639-6.49c-3.07-1.256-6.24-1.901-9.49-1.93
			c-3.146-0.02-6.106,0.693-8.873,2.142c-2.782,1.442-5.212,3.492-7.277,6.131c-2.089,2.647-3.735,5.812-4.951,9.485
			c-1.208,3.688-1.834,7.791-1.865,12.351c-0.062,9.538,1.79,16.982,5.553,22.309C758.771,313.312,764.115,315.998,771.06,316.037z"
			/>
		<path fill="#5C2D88" d="M926.414,247.261c9.971,0.062,17.883,3.69,23.751,10.886c5.859,7.193,8.745,17.397,8.663,30.632
			c-0.041,6.388-1.022,12.157-2.957,17.296c-1.933,5.133-4.479,9.479-7.644,13.039c-3.164,3.553-6.81,6.301-10.944,8.224
			c-4.132,1.927-8.474,2.871-13.027,2.852c-4.548-0.03-8.51-0.878-11.855-2.521c-3.341-1.644-6.746-3.889-10.207-6.737l0.57,13.508
			l-0.686,107.989l-13.191-0.634l0.926-192.813l11.056,0.073l1.081,9.272l0.487,0.003c3.162-3.017,6.779-5.622,10.854-7.816
			C917.382,248.317,921.748,247.233,926.414,247.261z M923.414,258.463c-3.692-0.025-7.159,0.851-10.43,2.617
			c-3.257,1.764-6.533,4.483-9.802,8.146l-0.266,41.308c3.341,3.053,6.55,5.214,9.631,6.488c3.087,1.255,6.251,1.907,9.505,1.929
			c3.14,0.015,6.103-0.696,8.873-2.145c2.773-1.444,5.206-3.488,7.273-6.13c2.075-2.647,3.724-5.804,4.943-9.475
			c1.216-3.685,1.834-7.8,1.862-12.356c0.061-9.538-1.787-16.977-5.55-22.313C935.695,261.194,930.351,258.511,923.414,258.463z"/>
		<path fill="#5C2D88" d="M839.735,327.692c-8.452-0.051-14.585-2.685-18.395-7.923c-3.822-5.225-5.695-12.93-5.628-23.119
			l0.315-50.083l13.492,0.085l-0.305,48.287c-0.045,7.481,1.087,12.882,3.388,16.203c2.318,3.329,6.078,4.996,11.271,5.035
			c4.127,0.024,7.76-1.01,10.917-3.104c3.161-2.091,6.65-5.457,10.478-10.095l0.352-56.098l13.333,0.075l-0.501,79.038
			l-11.054-0.078l-1.067-12.359h-0.481c-3.718,4.309-7.617,7.746-11.695,10.327C850.076,326.468,845.27,327.726,839.735,327.692z"/>
		<polygon fill="#5C2D88" points="888.896,440.493 888.683,463.928 1061.212,253.54 1047.771,246.867 		"/>
		<polygon fill="#5C2D88" points="790.461,112.922 788.327,94.965 1050.626,248.284 1041.954,256.937 		"/>
	</g>
</g>
</svg>
